<?xml version="1.0" encoding="utf-8"?>
<!-- Generator: Adobe Illustrator 16.0.0, SVG Export Plug-In . SVG Version: 6.00 Build 0)  -->
<!DOCTYPE svg PUBLIC "-//W3C//DTD SVG 1.1//EN" "http://www.w3.org/Graphics/SVG/1.1/DTD/svg11.dtd" [
	<!ENTITY ns_flows "http://ns.adobe.com/Flows/1.0/">
	<!ENTITY ns_extend "http://ns.adobe.com/Extensibility/1.0/">
	<!ENTITY ns_ai "http://ns.adobe.com/AdobeIllustrator/10.0/">
	<!ENTITY ns_graphs "http://ns.adobe.com/Graphs/1.0/">
]>
<svg version="1.1" id="Layer_1" xmlns:x="&ns_extend;" xmlns:i="&ns_ai;" xmlns:graph="&ns_graphs;"
	 xmlns="http://www.w3.org/2000/svg" xmlns:xlink="http://www.w3.org/1999/xlink" xmlns:a="http://ns.adobe.com/AdobeSVGViewerExtensions/3.0/"
	 x="0px" y="0px" width="864px" height="864px" viewBox="0 0 864 864" enable-background="new 0 0 864 864" xml:space="preserve">
<path fill-rule="evenodd" clip-rule="evenodd" d="M325.168,47.917c9.067,3.929,17.323-1.411,26.479-6.295
	c10.312-5.502,22.058-8.266,34.045-7.244c6.841,0.583,13.568,2.403,20.392,3.336c1.955,0.267,4.236-0.23,6.081-1.037
	c15.935-6.962,32.298-9.162,49.248-4.562c3.956,1.073,8.118,2.233,11.48,4.432c4.443,2.906,8.63,2.123,13.282,1.429
	c16.872-2.516,33.564-3.05,49.107,5.915c5.236,3.02,21.965,7.683,28.171,8.427c19.027,2.282,36.464,7.805,48.761,23.973
	c1.048,1.378,3.727,1.946,5.713,2.116c18.008,1.536,33.285,8.964,46.119,21.436c3.058,2.971,5.665,6.616,7.69,10.376
	c1.676,3.112,3.812,4.601,7.059,5.541c12.284,3.559,23.194,9.057,32.19,18.841c6.172,6.712,11.654,13.315,14.669,21.989
	c0.713,2.053,2.932,4.032,4.957,5.109c16.152,8.592,29.682,19.691,36.861,37.145c0.506,1.23,1.288,2.442,1.42,3.716
	c0.935,9.021,6.319,14.724,12.957,20.489c15.328,13.316,24.588,30.005,24.314,51.052c-0.02,1.494,1.315,3.229,2.437,4.479
	c12.192,13.582,20.872,28.778,22.217,47.427c0.048,0.664,0.239,1.394,0.045,1.988c-4.32,13.24,3.957,23.1,8.771,34.023
	c3.963,8.992,5.517,18.79,5.065,28.576c-0.301,6.534-2.358,12.971-3.267,19.501c-0.316,2.276-0.07,4.928,0.816,7.028
	c6.744,15.972,9.192,32.295,4.439,49.239c-1.067,3.804-2.187,7.848-4.385,11.017c-3.074,4.432-2.081,8.713-1.595,13.354
	c1.408,13.442,3.814,27.088-1.776,40.094c-2.796,6.506-7.021,12.387-10.373,18.672c-1.076,2.018-2.058,4.438-2.01,6.649
	c0.508,23.437-4.379,44.659-23.518,60.472c-1.298,1.071-2.089,3.288-2.295,5.067c-2.202,19.024-9.399,35.595-23.508,48.865
	c-0.606,0.57-1.16,1.312-1.889,1.621c-9.041,3.842-12.599,11.457-15.451,20.305c-5.03,15.598-16.907,25.839-29.824,34.968
	c-11.036,0.971-14.157,10.719-19.68,17.783c-3.651,4.672-6.789,9.82-10.878,14.06c-8.178,8.477-18.426,13.752-29.868,16.23
	c-4.295,0.931-6.892,3.078-9.536,6.279c-10.8,13.077-23.363,23.729-40.506,27.556c-0.163,0.036-0.322,0.137-0.48,0.131
	c-11.726-0.443-20.517,5.188-29.605,12.114c-15.042,11.464-32.308,16.991-51.66,12.748c-1.473-0.322-3.592,0.531-4.901,1.516
	c-12.682,9.532-27.394,13.143-42.758,13.814c-6.198,0.271-12.59-1.701-18.739-3.26c-3.939-0.999-7.26-0.696-10.949,0.927
	c-17.999,7.918-36.654,9.7-54.754,1.63c-7.963-3.55-14.923-3.427-23.002-2.476c-19.868,2.341-38.746-0.231-54.724-14.035
	c-1.604-1.386-4.919-1.09-7.437-1.075c-19.713,0.109-38.376-3.463-52.853-17.932c-5.326-5.322-10.512-8.009-18.006-9.338
	c-20.799-3.688-38.125-13.493-48.838-32.783c-0.806-1.451-2.976-2.512-4.725-3.014c-12.705-3.648-24.34-9.19-33.368-19.104
	c-5.65-6.204-11.293-12.485-13.81-20.863c-1.509-5.024-5.848-7.319-10.163-9.542c-17.422-8.975-29.669-22.484-34.734-41.584
	c-1.539-5.802-4.133-9.821-8.691-13.681c-13.611-11.526-25.046-25.108-26.459-43.646c-0.723-9.483-4.777-15.959-10.153-23.094
	c-11.871-15.753-18.688-33.342-14.539-53.708c0.312-1.532-0.2-3.684-1.137-4.95c-11.675-15.796-14.631-33.849-13.814-52.851
	c0.11-2.571,0.896-5.312,2.088-7.6c2.604-4.993,1.302-9.375-0.663-14.196c-8.369-20.533-8.132-40.833,2.276-60.76
	c0.912-1.745,1.092-4.122,0.912-6.144c-0.684-7.691-2.401-15.361-2.359-23.032c0.08-14.578,4.456-27.911,13.782-39.478
	c1.438-1.782,2.101-4.701,2.068-7.079c-0.329-23.233,4.471-44.335,23.55-59.963c1.301-1.065,2.1-3.282,2.307-5.059
	c2.125-18.276,8.723-34.451,22.054-47.464c2.478-2.418,5.181-4.907,8.256-6.339c4.717-2.197,6.574-5.744,8.034-10.461
	c6.385-20.631,19.068-36.104,39.3-44.323c3.925-1.595,5.509-3.752,7.196-7.001c10.42-20.065,25.732-34.086,48.454-39.005
	c2.142-0.464,4.354-2.221,5.812-3.977c12.08-14.544,25.794-26.501,45.242-29.829c0.327-0.056,0.663-0.274,0.966-0.228
	c9.911,1.523,16.357-4.421,23.568-9.888C294.214,54.324,307.721,47.921,325.168,47.917z M551.005,751.679
	c5.823,2.147,9.934-1.339,14.384-6.037c9.551-10.085,21.765-15.341,35.53-17.128c6.783-0.88,12.994-2.881,15.688-10.199
	c0.215-0.586,0.744-1.06,1.137-1.578c8.429-11.128,19.407-18.62,32.835-22.239c5.804-1.564,8.375-5.539,10.673-10.523
	c5.812-12.607,14.735-22.637,27.129-28.969c6.264-3.2,10.205-6.618,11.716-14.269c2.541-12.866,10.745-22.905,20.595-31.426
	c2.988-2.584,6.201-4.909,9.189-7.494c0.62-0.536,1.075-1.747,0.971-2.566c-2.129-16.654,5.246-30.347,14.817-42.587
	c5.042-6.449,7.588-11.972,6.677-20.317c-1.674-15.338,4.727-28.848,12.209-41.818c0.843-1.461,1.873-3.563,1.426-4.906
	c-6.093-18.305-4.355-36.052,3.075-53.564c0.604-1.423,0.579-3.677-0.142-5.01c-8.934-16.523-10.257-33.859-5.745-51.81
	c0.726-2.889,0.067-4.728-1.623-7.156c-3.478-4.995-6.668-10.307-9.145-15.858c-4.549-10.198-5.628-21.089-5.278-32.205
	c0.068-2.172-0.743-5.141-2.262-6.473c-12.061-10.577-18.753-23.905-21.677-39.485c-1.063-5.663-1.43-10.876-8.134-14.868
	c-11.366-6.768-19.766-17.274-23.828-30.357c-2.41-7.761-5.733-14.328-14.547-16.205c-0.768-0.164-1.423-0.842-2.14-1.266
	c-12.259-7.261-21.206-17.503-27.576-30.184c-0.934-1.858-2.758-4.192-4.532-4.562c-18.524-3.854-32.956-13.562-43.618-29.142
	c-0.972-1.419-3.126-2.959-4.682-2.909c-18.924,0.612-34.063-7.878-47.659-19.778c-2.858-2.501-5.355-3.315-8.878-2.723
	c-10.756,1.808-21.215,0.377-31.202-3.821c-5.793-2.435-11.248-5.667-17.016-8.172c-1.885-0.818-4.397-1.015-6.417-0.568
	c-14.829,3.281-29.622,5.194-44.1-1.203c-6.373-2.815-12.362-4.579-18.457,0.474c-1.089,0.902-2.743,1.165-4.174,1.602
	c-13.301,4.063-26.678,5.376-40.251,1.246c-3.193-0.972-6.018-1.469-9.007,1.692c-2.997,3.169-6.986,5.779-11.022,7.515
	c-11.855,5.102-24.316,7.487-37.319,7.046c-2.104-0.071-4.908,0.983-6.296,2.51c-9.998,11.006-22.103,18.04-36.79,20.493
	c-7.654,1.278-13.871,3.439-18.687,11.004c-8.032,12.615-20.869,19.705-35.084,24.21c-2.322,0.736-5.416,2.188-6.209,4.11
	c-6.992,16.945-18.545,29.458-35.049,37.324c-3.358,1.601-4.783,3.836-5.518,7.462c-3.283,16.194-12.446,28.641-25.27,38.739
	c-2.406,1.896-5.752,4.773-5.754,7.2c-0.013,19.238-8.614,34.509-20.725,48.471c-1.318,1.52-2.314,4.164-2.042,6.086
	c2.305,16.304-0.97,31.236-9.799,45.128c-1.753,2.759-3.989,6.767-3.199,9.336c5.603,18.232,4.311,35.787-3.089,53.191
	c-0.741,1.744-0.417,4.595,0.538,6.302c7.344,13.13,8.711,27.441,6.379,41.657c-1.39,8.472-1.515,14.625,4.273,21.988
	c9.509,12.096,10.777,27.205,10.578,42.299c-0.031,2.311,0.869,5.395,2.485,6.847c12.7,11.412,19.558,25.55,21.467,42.429
	c0.543,4.805,1.699,9.914,7.896,11.189c1.034,0.213,1.888,1.316,2.818,2.017c11.466,8.622,18.793,20.204,23.129,33.625
	c1.624,5.025,3.982,8.104,9.124,9.858c3.986,1.358,7.53,4.148,11.104,6.551c10.109,6.793,16.84,16.401,22.398,27.022
	c0.888,1.698,2.631,3.793,4.287,4.114c18.06,3.506,31.862,13.163,42.397,28.042c1.326,1.872,4.115,3.927,6.173,3.872
	c17.207-0.458,31.458,6.719,44.194,17.158c4.773,3.912,8.82,5.903,15.311,5.175c16.37-1.837,31.063,3.95,44.949,12.157
	c1.42,0.84,3.529,1.68,4.911,1.239c17.951-5.723,35.376-4.519,52.58,3.028c1.834,0.805,4.631,0.049,6.782-0.623
	c5.998-1.872,11.771-4.575,17.852-6.051c11.204-2.719,22.451-1.999,33.602,0.965c1.492,0.396,3.851,0.199,4.882-0.74
	C517.982,755.639,533.649,752.685,551.005,751.679z M126.526,570.38c-0.47,0.633-0.917,0.983-1.03,1.42
	c-5.462,21.128-15.968,40.913-17.151,63.16c-0.651,12.25-2.303,24.741-0.688,36.745c2.355,17.513,13.012,30.617,27.899,40.114
	c2.905,1.853,5.837,3.664,8.756,5.495c-5.028-29.031-1.386-56.818,3.158-84.597c0.819-5.008,1.674-10.169,1.303-15.169
	c-0.408-5.498-2.069-10.928-3.44-16.322C142.241,589.07,136.562,578.462,126.526,570.38z M552.213,56.648
	c1.627,2.162,2.376,3.202,3.171,4.205c14.726,18.584,25.566,39.434,33.21,61.661c7.306,21.249,19.194,38.001,39.281,48.405
	c4.147,2.147,8.75,3.416,13.143,5.09c0.489-0.426,0.979-0.853,1.468-1.28c-4.173-16.778-8.252-33.581-12.549-50.327
	c-3.569-13.912-9.576-26.762-17.085-39.01C599.139,63.026,577.897,56.864,552.213,56.648z M233.234,707.173
	c-0.562,0.508-1.124,1.016-1.686,1.523c4.186,16.944,8.058,33.975,12.659,50.806c3.645,13.332,9.061,25.956,16.396,37.845
	c9.1,14.75,21.608,24.171,38.616,27.343c7.023,1.31,14.167,1.977,21.195,2.928c0.243-1.552,0.346-1.765,0.28-1.854
	c-1.561-2.134-3.125-4.265-4.717-6.375c-15.693-20.812-25.474-44.616-34.951-68.607c-2.115-5.354-4.433-11.022-8.124-15.273
	c-6.075-6.994-12.831-13.655-20.283-19.113C246.949,712.24,239.752,710.17,233.234,707.173z M78.388,259.937
	c11.293-4.303,22.08-8.875,33.172-12.513c11.923-3.91,23.988-7.662,36.262-10.146c10.98-2.223,21.585-4.665,31.598-10.014
	c11.821-6.315,21.017-15.05,27.871-26.4c1.208-2,1.965-4.273,2.979-6.531c-8.532,0-16.345-0.366-24.112,0.072
	c-19.765,1.113-39.586,2.145-58.593,8.483c-12.17,4.059-24.433,8.122-32.817,18.76C85.749,233.064,79.357,245.619,78.388,259.937z
	 M190.04,668.529c0,11.491-0.475,22.313,0.109,33.078c0.919,16.947,3.221,33.664,7.89,50.146
	c6.81,24.043,21.704,39.515,45.505,46.532c3.897,1.149,8.006,1.579,13.196,2.566c-3.03-5.729-5.917-10.037-7.685-14.764
	c-3.651-9.761-6.948-19.673-9.93-29.659c-2.447-8.194-5.009-16.483-6.143-24.915c-2.329-17.334-8.913-32.682-19.949-45.997
	C206.773,677.967,198.867,672.178,190.04,668.529z M616.8,726.133c8.843,1.033,16.701,1.901,24.545,2.879
	c19.025,2.371,38.026,4.395,57.258,2.072c16.909-2.042,32.74-5.705,44.375-19.829c7.167-8.702,12.825-17.888,15.67-29.64
	c-4.686,1.56-8.55,2.991-12.499,4.136c-22.284,6.458-45.197,7.989-68.204,7.921c-15.562-0.046-29.517,4.669-42.431,12.638
	C628.07,710.902,621.483,716.781,616.8,726.133z M115.322,201.832c1.386-0.354,2.165-0.475,2.886-0.747
	c23.278-8.789,47.607-10.891,72.166-10.814c19.428,0.061,37.34-4.399,52.73-16.449c5.408-4.234,9.604-10.017,15.061-15.849
	c-9.43-1.229-17.091-2.206-24.746-3.227c-20.296-2.708-40.555-4.543-61.085-1.889c-16.019,2.072-30.201,7.043-41.23,19.51
	C123.596,180.854,118.24,190.288,115.322,201.832z M161.759,149.576c1.271-0.058,1.907-0.015,2.514-0.125
	c26.471-4.818,52.807-2.309,78.91,2.392c20.616,3.712,39.091-0.537,56.215-11.865c3.412-2.257,6.119-5.579,9.945-9.151
	c-22.657-5.838-42.615-15.528-64.726-17.68c-13.736-1.337-27.438-3.915-41.162-0.162
	C183.828,118.353,170.907,131.352,161.759,149.576z M51.629,326.033c9.698-6.389,17.985-12.925,27.196-17.667
	c14.447-7.439,29.282-14.262,44.385-20.259c18.938-7.52,34.153-18.803,43.08-37.488c1.99-4.165,3.292-8.659,5.102-13.516
	c-7.048,1.159-12.852,1.736-18.458,3.113c-12.514,3.074-24.958,6.445-37.378,9.885c-14.854,4.114-28.47,10.888-40.833,20.059
	C56.072,283.996,52.521,304.054,51.629,326.033z M104.078,397.315c-22.378,20.03-44.794,38.769-60.104,64.062
	c-4.154,6.864-7.544,14.421-9.917,22.083c-4.098,13.231,0.043,25.886,4.982,38.128c1.716,4.254,4.416,8.111,7.019,12.782
	c2.974-6.891,5.117-12.665,7.886-18.123c9.001-17.741,20.042-34.21,33.116-49.155c7.741-8.849,12.926-18.759,16.733-29.703
	C108.328,424.351,108.255,411.405,104.078,397.315z M721.03,262.117c0.826-6.668,1.505-12.704,2.332-18.72
	c2.916-21.233,5.47-42.441,2.776-63.958c-2.162-17.273-6.282-33.263-20.944-44.781c-8.442-6.633-17.336-11.819-28.451-14.582
	c1.58,4.714,3.027,8.585,4.181,12.543c6.386,21.923,8.155,44.476,7.821,67.114c-0.21,14.198,3.997,26.867,10.136,39.114
	C703.694,248.452,710.906,256.115,721.03,262.117z M365.738,114.192c-5.217-2.724-9.088-4.53-12.748-6.693
	c-20.86-12.326-42.736-22.248-66.348-28.01c-27.435-6.694-49.743,1.795-67.562,23.198c-0.762,0.916-1.264,2.048-2.181,3.566
	c7.307,0.483,13.925,0.863,20.535,1.369c20.592,1.577,39.842,8.635,59.263,14.845c10.741,3.435,21.488,6.102,32.791,4.527
	c7.055-0.983,14.235-1.945,20.955-4.15C355.521,121.177,359.959,117.558,365.738,114.192z M748.657,314.217
	c5.668-21.297,11.811-41.332,16.123-61.754c2.446-11.583,3.344-23.919,2.377-35.706c-1.766-21.507-14.269-36.73-32.595-47.411
	c-1.596-0.93-3.277-1.714-4.944-2.58c-0.351,0.856-0.491,1.024-0.466,1.161c5.116,27.094,2.148,53.931-2.415,80.744
	c-0.94,5.528-2.367,11.318-1.607,16.712c1.193,8.479,3.718,16.828,6.298,25.037C734.278,299.49,739.739,306.976,748.657,314.217z
	 M770.009,486.491c9.997-9.246,19.282-17.786,28.515-26.382c15.476-14.407,28.548-30.631,37.717-49.83
	c4.733-9.908,5.753-20.363,4.057-30.968c-0.908-5.675-2.936-11.246-5.058-16.628c-1.756-4.452-4.393-8.559-7.183-13.848
	c-2.632,6.323-4.398,11.297-6.714,16c-9.081,18.451-20.448,35.477-33.834,51.023c-7.516,8.73-13.031,18.233-16.894,29.036
	C765.791,458.391,765.572,471.73,770.009,486.491z M617.189,82.466c3.354,6.539,6.443,11.482,8.528,16.817
	c7.925,20.277,13.721,41.146,17.772,62.583c4.005,21.194,15.039,38.142,33.595,49.724c2.302,1.437,4.882,2.429,8.527,4.21
	c-1.071-17.524-1.884-33.774-3.107-49.994c-1.146-15.184-4.719-29.85-10.348-44.027c-3.624-9.128-8.179-17.742-16.464-23.282
	c-6.986-4.671-14.506-8.696-22.183-12.125C628.861,84.295,623.462,83.896,617.189,82.466z M197.518,763.722
	c-10.205-25.686-12.273-51.563-12.263-77.598c0.005-12.985-2.8-24.88-7.77-36.716c-4.778-11.378-13.434-19.236-22.13-27.222
	c-0.469-0.431-1.457-0.297-2.476-0.474c-0.614,4.932-1.162,9.516-1.759,14.094c-3.36,25.781-7.176,51.597-1.812,77.518
	c1.55,7.489,3.62,15.244,7.348,21.799c3.352,5.892,9.017,10.621,14.179,15.291C178.091,756.978,186.892,760.833,197.518,763.722z
	 M595.071,812.075c-0.07-0.508-0.14-1.015-0.209-1.522c-1.567-0.331-3.141-0.638-4.7-1.002c-1.779-0.415-3.543-0.897-5.319-1.326
	c-23.869-5.762-45.521-16.71-66.779-28.568c-11.906-6.642-24.699-10.055-38.27-9.629c-9.787,0.307-19.507,1.733-28.592,7.254
	c9.104,7.222,17.553,14.487,26.57,20.959c18.686,13.407,37.667,26.278,60.715,31.491
	C561.059,834.837,578.452,824.849,595.071,812.075z M702.424,645.155c1.314,0.983,1.466,1.186,1.574,1.165
	c3.736-0.727,7.455-1.554,11.205-2.204c23.118-4.012,45.788-9.606,66.941-20.06c18.073-8.931,32.982-20.958,37.177-42.137
	c1.552-7.833,2.396-15.807,3.692-24.585c-2.038,0.705-2.559,0.75-2.896,1.021c-17.516,14.096-36.855,24.944-57.908,32.812
	c-7.913,2.958-16.049,5.571-23.499,9.46c-11.16,5.825-20.193,14.583-27.119,24.993C707.589,631.636,705.328,638.809,702.424,645.155
	z M565.143,752.139c1.05,0.642,1.413,0.986,1.84,1.107c19.498,5.537,38.797,12.02,58.579,16.224
	c12.352,2.625,25.567,3.319,38.16,2.21c22.725-2.002,36.954-17.231,48.334-35.531c0.372-0.597,0.23-1.513,0.333-2.315
	c-0.734-0.239-1.248-0.606-1.642-0.507c-17.365,4.431-34.923,4.27-52.522,2.029c-11.337-1.443-22.579-3.844-33.948-4.755
	c-17.785-1.426-34.529,2.465-49.362,12.794C571.438,745.815,568.537,749.063,565.143,752.139z M101.926,455.577
	c-4.195,5.22-7.818,9.694-11.406,14.197C75.44,488.7,61.588,508.276,52.604,531.091c-10.031,25.473-3.226,47.156,12.996,67.271
	c0.532,0.659,1.417,1.032,2.342,1.683c0.398-1.031,0.66-1.63,0.863-2.248c5.138-15.601,9.562-31.486,15.639-46.713
	c4.472-11.202,11.419-21.389,16.704-32.3c7.946-16.404,10.135-33.616,5.313-51.394C105.434,463.6,103.654,460.014,101.926,455.577z
	 M139.145,287.065c-0.73-0.189-0.923-0.311-1.048-0.262c-3.231,1.28-6.419,2.681-9.688,3.855
	c-23.415,8.416-45.875,18.786-65.982,33.594c-20.431,15.045-29.401,35.439-26.661,60.762c0.338,3.125,1.435,6.168,2.254,9.554
	c1.063-0.664,1.574-0.834,1.867-1.187c15.75-18.957,35.277-33.308,56.384-45.565c16.51-9.589,30.37-21.433,38.06-39.439
	C137.271,301.491,139.62,294.559,139.145,287.065z M101.448,662.61c0.21-3.511,0.309-5.934,0.509-8.348
	c0.535-6.458,0.343-13.095,1.821-19.334c4.164-17.573,8.196-35.255,13.846-52.377c5.262-15.946,6.125-31.553,2.023-47.61
	c-1.927-7.545-5.215-14.454-10.498-21.403c-2.23,4.271-3.949,7.803-5.877,11.216c-9.758,17.268-18.76,34.854-24.796,53.861
	c-3.968,12.499-6.77,25.098-5.557,38.272C74.717,636.405,86.151,649.976,101.448,662.61z M657.521,776.988
	c-26.365,0.483-50.75-5.562-74.637-14.271c-16.87-6.15-34.034-8.828-51.795-3.856c-7.863,2.202-15.257,5.11-21.651,11.109
	c5.787,3.098,11.081,5.784,16.235,8.716c22.093,12.562,45.036,23.015,70.39,26.839C619.782,809.103,640.028,800.556,657.521,776.988
	z M344.818,51.172c24.53,8.927,45.388,22.521,64.407,38.805c11.404,9.764,23.994,16.504,38.333,20.418
	c11.284,3.081,22.266,1.629,33.996-1.283c-2.089-2.43-3.538-4.217-5.092-5.908c-17.094-18.604-33.385-38.007-55.069-51.802
	c-15.922-10.129-32.129-17.431-51.658-11.536C361.123,42.466,352.594,44.892,344.818,51.172z M771.958,427.189
	c0.753-0.365,1.137-0.432,1.325-0.66c15.575-18.865,31.179-37.833,41.83-59.984c4.972-10.338,8.608-21.691,10.641-32.981
	c2.99-16.619-4.962-30.716-13.962-44.012c-1.491-2.203-3.447-4.09-5.555-6.55c-0.588,1.524-0.907,2.109-1.04,2.733
	c-4.396,20.776-11.413,40.571-21.827,59.136c-8.308,14.809-16.883,29.544-18.044,47.097
	C764.513,404.271,766.372,416.042,771.958,427.189z M116.664,340.008c-5.645,3.634-10.282,6.827-15.114,9.693
	c-21.889,12.985-42.22,27.842-58.761,47.474c-15.708,18.642-17.333,46.669-6.309,67.158c0.476-0.509,1.038-0.908,1.33-1.452
	c12.394-23.038,31.153-40.606,50.516-57.393c13.246-11.482,22.844-24.688,27.562-41.615
	C118.039,356.153,117.426,348.623,116.664,340.008z M538.666,121.535c-4.706-7.493-8.858-13.902-12.81-20.435
	c-11.265-18.623-24.455-35.626-40.569-50.392c-12.458-11.416-26.981-16.808-43.665-16.605c-9.552,0.116-18.476,2.95-27.491,7.039
	c6.924,4.608,14.006,8.062,19.491,13.214c15.02,14.107,29.208,29.095,44.061,43.386c5.694,5.479,12.121,10.26,18.559,14.878
	c3.299,2.368,7.408,3.58,11.062,5.484C517.069,123.193,527.346,122.557,538.666,121.535z M592.26,145.202
	c0.34-0.508,0.68-1.017,1.02-1.525c-2.022-4.265-4.384-8.404-6.011-12.814c-7.686-20.829-17.007-40.776-29.604-59.177
	c-16.191-23.654-37.821-34.729-66.662-30.066c-2.147,0.347-4.277,0.802-7.207,1.357c4.899,4.63,9.015,8.468,13.074,12.365
	c16.784,16.11,28.206,36.138,40.387,55.584c8.849,14.128,21.424,23.593,36.624,29.604
	C579.712,142.835,586.117,143.687,592.26,145.202z M422.483,106.714c-12.772-13.114-49.442-38.631-64.908-45.356
	c-18.797-8.174-37.853-13.371-57.549-3.189c-7.55,3.903-14.617,8.739-21.903,13.15c1.449,1.708,2.179,2.072,2.95,2.224
	c25.256,4.968,48.343,15.48,70.511,28.099c11.788,6.709,24.147,11.235,37.665,11.829
	C400.621,113.969,411.757,112.393,422.483,106.714z M765.183,369.51c2.1-4.043,3.788-7.593,5.736-10.994
	c11.607-20.268,21.543-41.213,27.662-63.895c7.735-28.675-0.161-53.292-23.505-71.55c-0.572-0.447-1.327-0.661-2.522-1.236
	c-0.389,6.161-0.749,11.76-1.092,17.36c-1.318,21.515-8.094,41.776-15.033,61.866c-5.419,15.691-6.078,31.148-2.268,47.086
	C756.043,356.014,759.435,362.99,765.183,369.51z M835.507,488.306c-4.354,4.853-7.926,9.127-11.806,13.101
	c-10.871,11.133-23.475,20.04-36.443,28.56c-11.212,7.366-22.881,14.439-32.676,23.458c-12.239,11.267-19.004,26.09-20.31,44.466
	c5.017-2.171,9.059-4.178,13.275-5.702c22.141-8.008,43.398-17.821,62.409-31.835C836.524,540.768,842.604,517.254,835.507,488.306z
	 M795.384,622.262c-23.713,13.938-48.933,20.553-74.688,25.241c-10.498,1.911-20.061,5.506-29.318,10.622
	c-11.331,6.263-19.472,15.414-25.702,26.501c-0.824,1.467-1.287,3.138-1.904,4.683c6.147,0,11.621,0.137,17.085-0.024
	c23.832-0.699,47.428-2.469,70.396-9.996c26.243-8.601,39.531-27.225,44.111-53.372
	C795.523,625.002,795.384,624.035,795.384,622.262z M281.001,738.555c2.098,5.108,3.661,8.534,4.929,12.067
	c7.944,22.14,17.526,43.499,31.426,62.591c11.456,15.736,25.348,27.939,46.144,29.538c9.112,0.701,17.893-0.06,27.215-2.099
	c-5.493-5.066-10.461-9.421-15.172-14.037c-15.863-15.543-26.852-34.654-38.397-53.3c-9.071-14.647-21.959-24.353-37.655-30.477
	C294.08,740.729,288.077,740.14,281.001,738.555z M757.444,543.397c10.664-6.747,20.66-13.222,30.804-19.456
	c16.177-9.942,30.076-22.688,42.688-36.594c10.51-11.587,14.198-26.387,13.695-41.97c-0.295-9.137-2.918-17.776-6.875-26.358
	c-0.769,0.806-1.205,1.108-1.431,1.524c-12.488,22.963-31.037,40.723-50.55,57.376c-12.321,10.517-21.011,22.898-26.301,38.02
	C756.429,524.646,755.859,533.438,757.444,543.397z M336.426,761.091c-0.235,0.543-0.472,1.086-0.707,1.628
	c3.335,5.242,6.782,10.416,9.983,15.737c10.409,17.307,21.709,33.937,36.337,48.034c4.765,4.592,9.201,9.824,14.72,13.271
	c12.455,7.777,26.393,11.152,41.053,9.159c7.344-0.999,14.47-3.604,22.09-5.585c-0.942-1.478-1.052-1.871-1.302-2.008
	c-23.523-12.85-41.781-31.791-58.75-51.935c-11.555-13.717-25.846-22.402-42.842-26.653
	C350.422,761.093,343.303,761.577,336.426,761.091z M393.47,774.414c-0.085,0.563-0.19,0.791-0.122,0.873
	c2.343,2.792,4.605,5.66,7.073,8.338c15.439,16.752,30.174,34.285,49.601,46.777c11.697,7.521,23.242,16.021,38.188,14.79
	c9.044-0.745,18.166-1.98,26.916-4.278c4.959-1.302,9.238-5.194,14.585-8.373c-25.664-9.189-46.818-23.507-66.475-40.095
	c-9.174-7.742-19.128-13.522-30.466-17.412C419.561,770.503,406.553,770.612,393.47,774.414z"/>
<g>
	<path fill-rule="evenodd" clip-rule="evenodd" fill="#FFFFFF" d="M552.213,56.648c25.685,0.215,46.926,6.377,60.639,28.744
		c7.509,12.248,13.516,25.098,17.085,39.01c4.297,16.747,8.376,33.549,12.549,50.327c-0.489,0.427-0.979,0.854-1.468,1.28
		c-4.393-1.674-8.995-2.942-13.143-5.09c-20.087-10.404-31.976-27.156-39.281-48.405c-7.644-22.227-18.484-43.077-33.21-61.661
		C554.589,59.85,553.84,58.81,552.213,56.648z"/>
	<path fill-rule="evenodd" clip-rule="evenodd" fill="#FFFFFF" d="M233.234,707.173c6.518,2.997,13.715,5.067,19.386,9.222
		c7.452,5.458,14.208,12.119,20.283,19.113c3.691,4.251,6.009,9.919,8.124,15.273c9.478,23.991,19.258,47.795,34.951,68.607
		c1.592,2.11,3.156,4.241,4.717,6.375c0.065,0.089-0.037,0.302-0.28,1.854c-7.028-0.951-14.172-1.618-21.195-2.928
		c-17.008-3.172-29.517-12.593-38.616-27.343c-7.335-11.889-12.752-24.513-16.396-37.845c-4.601-16.831-8.473-33.861-12.659-50.806
		C232.11,708.188,232.672,707.681,233.234,707.173z"/>
	<path fill-rule="evenodd" clip-rule="evenodd" fill="#FFFFFF" d="M78.388,259.937c0.969-14.317,7.361-26.872,16.36-38.29
		c8.384-10.638,20.647-14.702,32.817-18.76c19.007-6.338,38.828-7.37,58.593-8.483c7.767-0.438,15.58-0.072,24.112-0.072
		c-1.015,2.258-1.771,4.531-2.979,6.531c-6.854,11.35-16.05,20.085-27.871,26.4c-10.013,5.35-20.618,7.792-31.598,10.014
		c-12.273,2.484-24.339,6.236-36.262,10.146C100.468,251.062,89.682,255.634,78.388,259.937z"/>
	<path fill-rule="evenodd" clip-rule="evenodd" fill="#FFFFFF" d="M161.759,149.576c9.147-18.224,22.069-31.223,41.697-36.591
		c13.724-3.753,27.425-1.175,41.162,0.162c22.111,2.152,42.069,11.841,64.726,17.68c-3.826,3.573-6.533,6.895-9.945,9.151
		c-17.124,11.328-35.599,15.577-56.215,11.865c-26.103-4.7-52.438-7.21-78.91-2.392
		C163.666,149.561,163.031,149.518,161.759,149.576z"/>
	<path fill-rule="evenodd" clip-rule="evenodd" fill="#FFFFFF" d="M104.078,397.315c4.177,14.09,4.25,27.035-0.286,40.074
		c-3.808,10.944-8.993,20.854-16.733,29.703c-13.073,14.945-24.115,31.414-33.116,49.155c-2.769,5.458-4.912,11.232-7.886,18.123
		c-2.603-4.671-5.302-8.528-7.019-12.782c-4.939-12.242-9.081-24.896-4.982-38.128c2.373-7.662,5.763-15.219,9.917-22.083
		C59.284,436.084,81.7,417.346,104.078,397.315z"/>
	<path fill-rule="evenodd" clip-rule="evenodd" fill="#FFFFFF" d="M721.03,262.117c-10.124-6.002-17.336-13.665-22.149-23.269
		c-6.139-12.247-10.346-24.916-10.136-39.114c0.334-22.638-1.436-45.19-7.821-67.114c-1.153-3.958-2.601-7.83-4.181-12.543
		c11.115,2.763,20.009,7.949,28.451,14.582c14.662,11.518,18.782,27.508,20.944,44.781c2.693,21.517,0.14,42.724-2.776,63.958
		C722.535,249.413,721.856,255.449,721.03,262.117z"/>
	<path fill-rule="evenodd" clip-rule="evenodd" fill="#FFFFFF" d="M770.009,486.491c-4.437-14.761-4.218-28.101,0.606-41.596
		c3.862-10.803,9.378-20.306,16.894-29.036c13.386-15.547,24.753-32.572,33.834-51.023c2.315-4.703,4.082-9.677,6.714-16
		c2.79,5.289,5.427,9.396,7.183,13.848c2.122,5.382,4.149,10.953,5.058,16.628c1.696,10.604,0.677,21.06-4.057,30.968
		c-9.169,19.199-22.241,35.423-37.717,49.83C789.291,468.705,780.006,477.245,770.009,486.491z"/>
	<path fill-rule="evenodd" clip-rule="evenodd" fill="#FFFFFF" d="M197.518,763.722c-10.626-2.889-19.427-6.744-26.683-13.308
		c-5.163-4.67-10.828-9.399-14.179-15.291c-3.728-6.555-5.798-14.31-7.348-21.799c-5.364-25.921-1.548-51.736,1.812-77.518
		c0.597-4.578,1.145-9.162,1.759-14.094c1.019,0.177,2.007,0.043,2.476,0.474c8.697,7.985,17.353,15.844,22.13,27.222
		c4.97,11.836,7.774,23.73,7.77,36.716C185.245,712.158,187.313,738.036,197.518,763.722z"/>
	<path fill-rule="evenodd" clip-rule="evenodd" fill="#FFFFFF" d="M595.071,812.075c-16.619,12.773-34.013,22.762-56.584,17.656
		c-23.048-5.213-42.029-18.084-60.715-31.491c-9.018-6.472-17.466-13.737-26.57-20.959c9.085-5.521,18.805-6.947,28.592-7.254
		c13.57-0.426,26.363,2.987,38.27,9.629c21.258,11.858,42.91,22.807,66.779,28.568c1.776,0.429,3.54,0.911,5.319,1.326
		c1.56,0.364,3.133,0.671,4.7,1.002C594.932,811.061,595.001,811.567,595.071,812.075z"/>
	<path fill-rule="evenodd" clip-rule="evenodd" fill="#FFFFFF" d="M565.143,752.139c3.395-3.075,6.295-6.323,9.771-8.744
		c14.833-10.329,31.577-14.22,49.362-12.794c11.369,0.911,22.611,3.312,33.948,4.755c17.6,2.24,35.157,2.401,52.522-2.029
		c0.394-0.1,0.907,0.268,1.642,0.507c-0.103,0.803,0.039,1.719-0.333,2.315c-11.38,18.3-25.609,33.529-48.334,35.531
		c-12.593,1.109-25.809,0.415-38.16-2.21c-19.782-4.204-39.081-10.687-58.579-16.224
		C566.556,753.125,566.192,752.78,565.143,752.139z"/>
	<path fill-rule="evenodd" clip-rule="evenodd" fill="#FFFFFF" d="M139.145,287.065c0.475,7.493-1.874,14.426-4.814,21.312
		c-7.69,18.007-21.55,29.851-38.06,39.439c-21.106,12.258-40.634,26.608-56.384,45.565c-0.292,0.353-0.803,0.522-1.867,1.187
		c-0.819-3.386-1.916-6.429-2.254-9.554c-2.74-25.322,6.23-45.717,26.661-60.762c20.107-14.808,42.567-25.178,65.982-33.594
		c3.269-1.175,6.457-2.575,9.688-3.855C138.222,286.755,138.414,286.876,139.145,287.065z"/>
	<path fill-rule="evenodd" clip-rule="evenodd" fill="#FFFFFF" d="M101.448,662.61c-15.297-12.635-26.731-26.205-28.529-45.723
		c-1.213-13.175,1.588-25.773,5.557-38.272c6.036-19.008,15.038-36.594,24.796-53.861c1.928-3.413,3.647-6.944,5.877-11.216
		c5.282,6.949,8.57,13.858,10.498,21.403c4.102,16.058,3.238,31.664-2.023,47.61c-5.649,17.122-9.682,34.804-13.846,52.377
		c-1.478,6.239-1.286,12.876-1.821,19.334C101.757,656.677,101.659,659.1,101.448,662.61z"/>
	<path fill-rule="evenodd" clip-rule="evenodd" fill="#FFFFFF" d="M538.666,121.535c-11.32,1.022-21.597,1.658-31.362-3.431
		c-3.654-1.904-7.764-3.116-11.062-5.484c-6.438-4.619-12.864-9.399-18.559-14.878c-14.853-14.291-29.041-29.278-44.061-43.386
		c-5.485-5.152-12.567-8.605-19.491-13.214c9.016-4.089,17.939-6.923,27.491-7.039c16.684-0.203,31.207,5.189,43.665,16.605
		c16.114,14.766,29.305,31.769,40.569,50.392C529.808,107.633,533.96,114.042,538.666,121.535z"/>
	<path fill-rule="evenodd" clip-rule="evenodd" fill="#FFFFFF" d="M422.483,106.714c-10.727,5.679-21.862,7.255-33.234,6.756
		c-13.518-0.594-25.877-5.12-37.665-11.829c-22.168-12.618-45.255-23.13-70.511-28.099c-0.771-0.152-1.501-0.516-2.95-2.224
		c7.286-4.411,14.354-9.248,21.903-13.15c19.696-10.182,38.752-4.985,57.549,3.189C373.041,68.083,409.711,93.6,422.483,106.714z"/>
	<path fill-rule="evenodd" clip-rule="evenodd" fill="#FFFFFF" d="M765.183,369.51c-5.748-6.52-9.14-13.496-11.021-21.363
		c-3.811-15.938-3.151-31.395,2.268-47.086c6.939-20.09,13.715-40.351,15.033-61.866c0.343-5.6,0.703-11.199,1.092-17.36
		c1.195,0.576,1.95,0.789,2.522,1.236c23.344,18.258,31.24,42.875,23.505,71.55c-6.119,22.682-16.055,43.627-27.662,63.895
		C768.971,361.917,767.282,365.467,765.183,369.51z"/>
	<path fill-rule="evenodd" clip-rule="evenodd" fill="#FFFFFF" d="M835.507,488.306c7.098,28.948,1.018,52.462-25.55,72.047
		c-19.011,14.014-40.269,23.827-62.409,31.835c-4.217,1.524-8.259,3.531-13.275,5.702c1.306-18.376,8.07-33.199,20.31-44.466
		c9.795-9.019,21.464-16.092,32.676-23.458c12.969-8.52,25.572-17.427,36.443-28.56
		C827.581,497.433,831.152,493.158,835.507,488.306z"/>
	<path fill-rule="evenodd" clip-rule="evenodd" fill="#FFFFFF" d="M795.384,622.262c0,1.773,0.14,2.74-0.021,3.654
		c-4.58,26.147-17.868,44.771-44.111,53.372c-22.968,7.527-46.563,9.297-70.396,9.996c-5.464,0.161-10.938,0.024-17.085,0.024
		c0.617-1.545,1.08-3.216,1.904-4.683c6.23-11.087,14.371-20.238,25.702-26.501c9.258-5.116,18.82-8.711,29.318-10.622
		C746.451,642.814,771.671,636.2,795.384,622.262z"/>
	<path fill-rule="evenodd" clip-rule="evenodd" fill="#FFFFFF" d="M336.426,761.091c6.877,0.486,13.996,0.002,20.582,1.648
		c16.996,4.251,31.287,12.937,42.842,26.653c16.969,20.144,35.227,39.085,58.75,51.935c0.25,0.137,0.359,0.53,1.302,2.008
		c-7.62,1.981-14.746,4.586-22.09,5.585c-14.66,1.993-28.598-1.382-41.053-9.159c-5.519-3.446-9.955-8.679-14.72-13.271
		c-14.628-14.098-25.928-30.728-36.337-48.034c-3.201-5.321-6.648-10.495-9.983-15.737
		C335.954,762.177,336.19,761.634,336.426,761.091z"/>
</g>
<g>
	<path fill-rule="evenodd" clip-rule="evenodd" fill="#1A1F1C" d="M126.526,570.38c10.036,8.082,15.715,18.69,18.806,30.847
		c1.372,5.395,3.032,10.824,3.44,16.322c0.371,5-0.484,10.161-1.303,15.169c-4.543,27.778-8.186,55.565-3.158,84.597
		c-2.919-1.831-5.851-3.643-8.756-5.495c-14.887-9.497-25.543-22.602-27.899-40.114c-1.615-12.004,0.037-24.495,0.688-36.745
		c1.184-22.247,11.689-42.032,17.151-63.16C125.609,571.363,126.056,571.013,126.526,570.38z"/>
	<path fill-rule="evenodd" clip-rule="evenodd" fill="#1A1F1C" d="M190.04,668.529c8.828,3.648,16.734,9.438,22.993,16.988
		c11.037,13.315,17.62,28.663,19.949,45.997c1.133,8.432,3.695,16.721,6.143,24.915c2.982,9.986,6.279,19.898,9.93,29.659
		c1.768,4.727,4.654,9.035,7.685,14.764c-5.19-0.987-9.299-1.417-13.196-2.566c-23.802-7.018-38.696-22.489-45.505-46.532
		c-4.668-16.482-6.971-33.199-7.89-50.146C189.565,690.843,190.04,680.021,190.04,668.529z"/>
	<path fill-rule="evenodd" clip-rule="evenodd" fill="#1A1F1C" d="M616.8,726.133c4.684-9.352,11.271-15.23,18.714-19.823
		c12.914-7.969,26.869-12.684,42.431-12.638c23.007,0.068,45.92-1.463,68.204-7.921c3.949-1.145,7.813-2.576,12.499-4.136
		c-2.845,11.752-8.503,20.938-15.67,29.64c-11.635,14.124-27.466,17.787-44.375,19.829c-19.231,2.322-38.232,0.299-57.258-2.072
		C633.501,728.034,625.643,727.166,616.8,726.133z"/>
	<path fill-rule="evenodd" clip-rule="evenodd" fill="#1A1F1C" d="M115.322,201.832c2.917-11.544,8.273-20.978,15.782-29.465
		c11.03-12.467,25.212-17.438,41.23-19.51c20.53-2.655,40.789-0.819,61.085,1.889c7.655,1.021,15.315,1.999,24.746,3.227
		c-5.457,5.832-9.653,11.615-15.061,15.849c-15.39,12.049-33.302,16.509-52.73,16.449c-24.559-0.076-48.888,2.025-72.166,10.814
		C117.487,201.357,116.708,201.479,115.322,201.832z"/>
	<path fill-rule="evenodd" clip-rule="evenodd" fill="#1A1F1C" d="M51.629,326.033c0.892-21.979,4.443-42.037,23.093-55.873
		c12.363-9.171,25.979-15.945,40.833-20.059c12.42-3.439,24.864-6.811,37.378-9.885c5.607-1.377,11.41-1.954,18.458-3.113
		c-1.811,4.857-3.112,9.351-5.102,13.516c-8.927,18.685-24.143,29.968-43.08,37.488c-15.103,5.997-29.938,12.819-44.385,20.259
		C69.614,313.108,61.327,319.645,51.629,326.033z"/>
	<path fill-rule="evenodd" clip-rule="evenodd" fill="#1A1F1C" d="M365.738,114.192c-5.779,3.365-10.218,6.985-15.296,8.652
		c-6.72,2.205-13.9,3.167-20.955,4.15c-11.303,1.575-22.05-1.092-32.791-4.527c-19.421-6.21-38.671-13.269-59.263-14.845
		c-6.609-0.506-13.228-0.885-20.535-1.369c0.917-1.518,1.419-2.65,2.181-3.566c17.819-21.403,40.128-29.892,67.562-23.198
		c23.611,5.762,45.487,15.684,66.348,28.01C356.65,109.662,360.521,111.468,365.738,114.192z"/>
	<path fill-rule="evenodd" clip-rule="evenodd" fill="#1A1F1C" d="M748.657,314.217c-8.918-7.241-14.379-14.727-17.229-23.797
		c-2.58-8.209-5.104-16.559-6.298-25.037c-0.76-5.394,0.667-11.184,1.607-16.712c4.563-26.812,7.531-53.65,2.415-80.744
		c-0.025-0.137,0.115-0.305,0.466-1.161c1.667,0.865,3.349,1.649,4.944,2.58c18.326,10.681,30.829,25.904,32.595,47.411
		c0.967,11.787,0.069,24.122-2.377,35.706C760.468,272.885,754.325,292.92,748.657,314.217z"/>
	<path fill-rule="evenodd" clip-rule="evenodd" fill="#1A1F1C" d="M617.189,82.466c6.272,1.429,11.672,1.829,16.321,3.906
		c7.677,3.43,15.196,7.455,22.183,12.125c8.285,5.54,12.84,14.154,16.464,23.282c5.629,14.178,9.202,28.844,10.348,44.027
		c1.224,16.22,2.036,32.47,3.107,49.994c-3.646-1.781-6.226-2.773-8.527-4.21c-18.556-11.583-29.59-28.53-33.595-49.724
		c-4.052-21.438-9.848-42.307-17.772-62.583C623.633,93.948,620.544,89.005,617.189,82.466z"/>
	<path fill-rule="evenodd" clip-rule="evenodd" fill="#1A1F1C" d="M702.424,645.155c2.904-6.347,5.165-13.52,9.167-19.534
		c6.926-10.41,15.959-19.168,27.119-24.993c7.45-3.889,15.586-6.502,23.499-9.46c21.053-7.867,40.393-18.716,57.908-32.812
		c0.338-0.271,0.858-0.316,2.896-1.021c-1.296,8.778-2.141,16.752-3.692,24.585c-4.194,21.179-19.104,33.206-37.177,42.137
		c-21.153,10.453-43.823,16.048-66.941,20.06c-3.75,0.65-7.469,1.478-11.205,2.204C703.89,646.341,703.738,646.139,702.424,645.155z
		"/>
	<path fill-rule="evenodd" clip-rule="evenodd" fill="#1A1F1C" d="M101.926,455.577c1.728,4.437,3.508,8.022,4.536,11.813
		c4.822,17.777,2.632,34.989-5.313,51.394c-5.285,10.911-12.232,21.098-16.704,32.3c-6.078,15.227-10.501,31.112-15.639,46.713
		c-0.203,0.618-0.465,1.217-0.863,2.248c-0.925-0.65-1.811-1.023-2.342-1.683c-16.222-20.115-23.027-41.799-12.996-67.271
		c8.984-22.814,22.836-42.391,37.916-61.316C94.108,465.271,97.731,460.797,101.926,455.577z"/>
	<path fill-rule="evenodd" clip-rule="evenodd" fill="#1A1F1C" d="M657.521,776.988c-17.492,23.567-37.738,32.114-61.458,28.536
		c-25.354-3.824-48.297-14.277-70.39-26.839c-5.154-2.932-10.448-5.618-16.235-8.716c6.395-5.999,13.788-8.907,21.651-11.109
		c17.761-4.972,34.925-2.294,51.795,3.856C606.771,771.426,631.155,777.472,657.521,776.988z"/>
	<path fill-rule="evenodd" clip-rule="evenodd" fill="#1A1F1C" d="M344.818,51.172c7.775-6.28,16.305-8.706,24.917-11.305
		c19.529-5.895,35.736,1.407,51.658,11.536c21.685,13.794,37.976,33.197,55.069,51.802c1.554,1.691,3.003,3.478,5.092,5.908
		c-11.73,2.912-22.712,4.363-33.996,1.283c-14.339-3.915-26.929-10.655-38.333-20.418C390.206,73.693,369.349,60.099,344.818,51.172
		z"/>
	<path fill-rule="evenodd" clip-rule="evenodd" fill="#1A1F1C" d="M771.958,427.189c-5.586-11.147-7.445-22.919-6.632-35.222
		c1.161-17.553,9.736-32.288,18.044-47.097c10.414-18.564,17.431-38.359,21.827-59.136c0.133-0.624,0.452-1.209,1.04-2.733
		c2.107,2.46,4.063,4.347,5.555,6.55c9,13.296,16.952,27.393,13.962,44.012c-2.032,11.29-5.669,22.644-10.641,32.981
		c-10.651,22.151-26.255,41.119-41.83,59.984C773.095,426.758,772.711,426.824,771.958,427.189z"/>
	<path fill-rule="evenodd" clip-rule="evenodd" fill="#1A1F1C" d="M116.664,340.008c0.763,8.615,1.375,16.146-0.776,23.865
		c-4.717,16.928-14.315,30.133-27.562,41.615c-19.363,16.786-38.123,34.354-50.516,57.393c-0.292,0.544-0.854,0.943-1.33,1.452
		c-11.023-20.489-9.398-48.517,6.309-67.158c16.541-19.632,36.872-34.488,58.761-47.474
		C106.381,346.835,111.019,343.642,116.664,340.008z"/>
	<path fill-rule="evenodd" clip-rule="evenodd" fill="#1A1F1C" d="M592.26,145.202c-6.143-1.515-12.548-2.366-18.379-4.672
		c-15.2-6.011-27.775-15.476-36.624-29.604c-12.181-19.446-23.603-39.474-40.387-55.584c-4.06-3.897-8.175-7.735-13.074-12.365
		c2.93-0.555,5.06-1.01,7.207-1.357c28.841-4.662,50.471,6.413,66.662,30.066c12.597,18.401,21.918,38.348,29.604,59.177
		c1.627,4.41,3.988,8.55,6.011,12.814C592.939,144.185,592.6,144.693,592.26,145.202z"/>
	<path fill-rule="evenodd" clip-rule="evenodd" fill="#1A1F1C" d="M281.001,738.555c7.076,1.585,13.079,2.174,18.488,4.284
		c15.696,6.124,28.584,15.829,37.655,30.477c11.546,18.646,22.534,37.757,38.397,53.3c4.711,4.616,9.679,8.971,15.172,14.037
		c-9.322,2.039-18.103,2.8-27.215,2.099c-20.796-1.599-34.688-13.802-46.144-29.538c-13.899-19.092-23.481-40.451-31.426-62.591
		C284.662,747.089,283.099,743.663,281.001,738.555z"/>
	<path fill-rule="evenodd" clip-rule="evenodd" fill="#1A1F1C" d="M757.444,543.397c-1.585-9.96-1.016-18.752,2.03-27.458
		c5.29-15.121,13.979-27.503,26.301-38.02c19.513-16.653,38.062-34.413,50.55-57.376c0.226-0.416,0.662-0.719,1.431-1.524
		c3.957,8.582,6.58,17.222,6.875,26.358c0.503,15.583-3.186,30.383-13.695,41.97c-12.611,13.905-26.511,26.651-42.688,36.594
		C778.104,530.176,768.108,536.65,757.444,543.397z"/>
	<path fill-rule="evenodd" clip-rule="evenodd" fill="#1A1F1C" d="M393.47,774.414c13.083-3.802,26.091-3.911,39.301,0.62
		c11.338,3.89,21.292,9.67,30.466,17.412c19.656,16.588,40.811,30.905,66.475,40.095c-5.347,3.179-9.626,7.071-14.585,8.373
		c-8.75,2.298-17.872,3.533-26.916,4.278c-14.946,1.231-26.491-7.269-38.188-14.79c-19.427-12.492-34.161-30.025-49.601-46.777
		c-2.468-2.678-4.73-5.546-7.073-8.338C393.279,775.205,393.385,774.978,393.47,774.414z"/>
</g>
</svg>
